<svg id="Layer_1" data-name="Layer 1" xmlns="http://www.w3.org/2000/svg" viewBox="0 0 960.22 309.5"><defs><style>.cls-1{font-size:251.51px;font-family:GillSansMT, Gill Sans MT;}.cls-2{fill:#2b512b;}</style></defs><title>bigega</title><text class="cls-1" transform="translate(336.85 225.02)">bigega</text><path class="cls-2" d="M192.31,298.72q0,32,0,64c0,7.48-4.23,10-10.64,6.33q-53.65-30.94-107.27-62C64.83,301.55,60,292.86,60,281.91c-.13-41.22-.05-82.44,0-123.67,0-7.18,4.39-9.72,10.53-6.17Q125.81,184,181.14,216c7.67,4.4,11.25,10.8,11.2,19.58C192.24,256.62,192.31,277.67,192.31,298.72Z" transform="translate(-59.89 -61.25)"/><path class="cls-2" d="M340.28,281.83c0,11-4.74,19.64-14.31,25.2q-53.76,31.22-107.62,62.24c-5.88,3.39-10.38.78-10.4-6,0-21.63,0-43.26,0-64.89,0-20.75.09-41.51,0-62.27-.06-9.11,3.59-15.73,11.56-20.31q55-31.62,109.94-63.44c6.71-3.87,10.92-1.46,10.92,6.25Q340.33,220.22,340.28,281.83Z" transform="translate(-59.89 -61.25)"/><path class="cls-2" d="M322.35,128.55q-54-31.25-108.09-62.28c-.66-.37-1.34-.71-2-1l-1.62-.93a21,21,0,0,0-10.52-3.06A19.23,19.23,0,0,0,190.36,64l-2.18,1.25a25.64,25.64,0,0,0-2.73,1.35C149.71,87,114.12,107.66,78.51,128.27c-3.14,1.82-4.73,3.92-4.77,6,0,.05,0,.1,0,.14-.11,2.16,1.32,4.34,4.25,6q54,31.23,108.1,62.28c.68.39,1.38.73,2.1,1.06l1.56.89a20.84,20.84,0,0,0,10.52,3.07h0A19.35,19.35,0,0,0,210,205c.74-.44,1.5-.87,2.25-1.3a25.31,25.31,0,0,0,2.66-1.32c35.73-20.39,71.31-41,106.93-61.65,3.26-1.89,4.85-4.08,4.77-6.26S325.25,130.24,322.35,128.55ZM238.09,122c-17.69,10.24-35.36,20.5-53.11,30.62a11.61,11.61,0,0,1-1.32.66l-1.12.64a9.58,9.58,0,0,1-4.83,1.36,10.27,10.27,0,0,1-5.22-1.52l-.78-.44c-.36-.16-.7-.34-1-.53q-7-4-14-8a2.41,2.41,0,0,1-.3-1.26s0-.05,0-.08c0-1,.81-2.08,2.37-3,17.68-10.23,35.36-20.49,53.1-30.62a13.2,13.2,0,0,1,1.36-.67l1.08-.62a9.52,9.52,0,0,1,4.83-1.37,10.41,10.41,0,0,1,5.23,1.52l.8.46c.35.16.69.33,1,.51l14,8a2.43,2.43,0,0,1,.31,1.24C240.5,120,239.7,121.05,238.09,122Z" transform="translate(-59.89 -61.25)"/></svg>