<svg id="Layer_1" data-name="Layer 1" xmlns="http://www.w3.org/2000/svg" viewBox="0 0 956.29 309.5"><defs><style>.cls-1{fill:#2b512b;}</style></defs><title>bigega</title><path d="M411.6,114.7H434v66.69q14.49-10.56,30.95-10.56,21.48,0,35.12,16.21t13.63,41.63q0,27.26-16.27,43.41t-43.53,16.15a122.11,122.11,0,0,1-23-2.33q-12.1-2.34-19.22-5.9ZM434,202.76v61.15a80.64,80.64,0,0,0,23.46,3.44q14.85,0,24.25-10.56t9.4-27.14q0-16.83-8.78-27.39T459.37,191.7Q446.85,191.7,434,202.76Z" transform="translate(-59.89 -61.25)"/><path d="M549.88,125.76a13.15,13.15,0,0,1,9.46,3.8,12.5,12.5,0,0,1,3.93,9.34,12.75,12.75,0,0,1-3.93,9.33,12.91,12.91,0,0,1-9.46,3.93,12.39,12.39,0,0,1-9.09-4,12.81,12.81,0,0,1-3.93-9.27,12.68,12.68,0,0,1,3.93-9.15A12.39,12.39,0,0,1,549.88,125.76Zm-11,47.52h22.35v113H538.83Z" transform="translate(-59.89 -61.25)"/><path d="M587.71,212.33q0-18,13.2-28.55t36-10.5H683.5v17.44H660.65q6.63,6.75,9.21,12.28a29.6,29.6,0,0,1,2.58,12.65,33.92,33.92,0,0,1-5,17.38,35.51,35.51,0,0,1-13,13.08q-7.92,4.54-26,7.24-12.66,1.85-12.65,8.72c0,2.62,1.57,4.77,4.73,6.45s8.86,3.42,17.13,5.22q20.74,4.54,26.71,7.12a34.51,34.51,0,0,1,10.74,7.37q8.11,8.1,8.11,20.39,0,16.08-14.31,25.66t-38.25,9.58q-24.2,0-38.62-9.64t-14.43-25.85q0-23,28.36-29.6-11.29-7.25-11.29-14.36,0-5.42,4.85-9.83t13.08-6.51Q587.69,237,587.71,212.33Zm36.71,79.21q-11.29,0-18.48,4.79t-7.18,12.29q0,17.43,31.44,17.43,14.85,0,23-4.36t8.17-12.34q0-7.86-10.32-12.83T624.42,291.54Zm5.29-98.85a21.5,21.5,0,0,0-15.48,6.14,19.69,19.69,0,0,0-6.38,14.73A18.65,18.65,0,0,0,614.11,228q6.27,5.72,15.84,5.71a22.39,22.39,0,0,0,15.78-5.83,19,19,0,0,0,6.33-14.55,19.22,19.22,0,0,0-6.39-14.74A22.63,22.63,0,0,0,629.71,192.69Z" transform="translate(-59.89 -61.25)"/><path d="M797.09,231.74H717.64q.86,16.2,10.86,25.79t25.86,9.58q22.1,0,40.77-13.76v21.86A74.76,74.76,0,0,1,774.68,285,85.69,85.69,0,0,1,750.92,288q-18.67,0-30.21-7.73a56.33,56.33,0,0,1-18.49-20.82q-6.93-13.08-6.93-30.27,0-25.78,14.61-41.94t38-16.15q22.47,0,35.86,15.72t13.38,42.12Zm-79-13.39H775q-.87-13.38-8-20.63t-19.15-7.24q-12,0-19.71,7.24T718.13,218.35Z" transform="translate(-59.89 -61.25)"/><path d="M815.51,212.33q0-18,13.2-28.55t36-10.5H911.3v17.44H888.46q6.63,6.75,9.21,12.28a29.6,29.6,0,0,1,2.58,12.65,33.92,33.92,0,0,1-5,17.38,35.51,35.51,0,0,1-13,13.08q-7.92,4.54-26,7.24-12.66,1.85-12.65,8.72,0,3.93,4.72,6.45t17.14,5.22q20.75,4.54,26.71,7.12A34.51,34.51,0,0,1,903,288.23q8.12,8.1,8.11,20.39,0,16.08-14.31,25.66t-38.25,9.58q-24.19,0-38.63-9.64t-14.43-25.85q0-23,28.37-29.6-11.29-7.25-11.3-14.36,0-5.42,4.85-9.83a30,30,0,0,1,13.08-6.51Q815.51,237,815.51,212.33Zm36.72,79.21q-11.29,0-18.48,4.79t-7.18,12.29q0,17.43,31.43,17.43,14.87,0,23-4.36t8.17-12.34q0-7.86-10.32-12.83T852.23,291.54Zm5.28-98.85A21.47,21.47,0,0,0,842,198.83a19.7,19.7,0,0,0-6.39,14.73A18.66,18.66,0,0,0,841.92,228q6.26,5.72,15.84,5.71a22.39,22.39,0,0,0,15.78-5.83,19,19,0,0,0,6.32-14.55,19.24,19.24,0,0,0-6.38-14.74A22.64,22.64,0,0,0,857.51,192.69Z" transform="translate(-59.89 -61.25)"/><path d="M999.6,218.35v48q0,5.78,3.93,5.77t12.65-6v13.64a73.8,73.8,0,0,1-12.22,6.69,26.63,26.63,0,0,1-9.64,1.78q-14.37,0-17-11.3Q963.14,288,947,288q-11.79,0-19.65-7.79t-7.86-19.59a27.57,27.57,0,0,1,7.68-19.1q7.66-8.42,21.79-13.32l28.62-9.83v-6q0-20.37-20.39-20.38-18.3,0-35.61,18.91V186.42q13-15.34,37.45-15.35,18.3,0,29.36,9.58a30.31,30.31,0,0,1,6.63,8.17A29.47,29.47,0,0,1,998.8,199Q999.6,204.11,999.6,218.35Zm-22,45.56V230.39l-15,5.77q-11.43,4.54-16.15,9.15a16.54,16.54,0,0,0-.25,22.9,15.82,15.82,0,0,0,11.61,4.42Q968.53,272.63,977.62,263.91Z" transform="translate(-59.89 -61.25)"/><path class="cls-1" d="M192.31,298.72q0,32,0,64c0,7.48-4.23,10-10.64,6.33q-53.65-30.94-107.27-62C64.83,301.55,60,292.86,60,281.91c-.13-41.22-.05-82.44,0-123.67,0-7.18,4.39-9.72,10.53-6.17Q125.81,184,181.14,216c7.67,4.4,11.25,10.8,11.2,19.58C192.24,256.62,192.31,277.67,192.31,298.72Z" transform="translate(-59.89 -61.25)"/><path class="cls-1" d="M340.28,281.83c0,11-4.74,19.64-14.31,25.2q-53.76,31.22-107.62,62.24c-5.88,3.39-10.38.78-10.4-6,0-21.63,0-43.26,0-64.89,0-20.75.09-41.51,0-62.27-.06-9.11,3.59-15.73,11.56-20.31q55-31.62,109.94-63.44c6.71-3.87,10.92-1.46,10.92,6.25Q340.33,220.22,340.28,281.83Z" transform="translate(-59.89 -61.25)"/><path class="cls-1" d="M322.35,128.55q-54-31.25-108.09-62.28c-.66-.37-1.34-.71-2-1l-1.62-.93a21,21,0,0,0-10.52-3.06A19.23,19.23,0,0,0,190.36,64l-2.18,1.25a25.64,25.64,0,0,0-2.73,1.35C149.71,87,114.12,107.66,78.51,128.27c-3.14,1.82-4.73,3.92-4.77,6,0,.05,0,.1,0,.14-.11,2.16,1.32,4.34,4.25,6q54,31.23,108.1,62.28c.68.39,1.38.73,2.1,1.06l1.56.89a20.84,20.84,0,0,0,10.52,3.07h0A19.35,19.35,0,0,0,210,205c.74-.44,1.5-.87,2.25-1.3a25.31,25.31,0,0,0,2.66-1.32c35.73-20.39,71.31-41,106.93-61.65,3.26-1.89,4.85-4.08,4.77-6.26S325.25,130.24,322.35,128.55ZM238.09,122c-17.69,10.24-35.36,20.5-53.11,30.62a11.61,11.61,0,0,1-1.32.66l-1.12.64a9.58,9.58,0,0,1-4.83,1.36,10.27,10.27,0,0,1-5.22-1.52l-.78-.44c-.36-.16-.7-.34-1-.53q-7-4-14-8a2.41,2.41,0,0,1-.3-1.26s0-.05,0-.08c0-1,.81-2.08,2.37-3,17.68-10.23,35.36-20.49,53.1-30.62a13.2,13.2,0,0,1,1.36-.67l1.08-.62a9.52,9.52,0,0,1,4.83-1.37,10.41,10.41,0,0,1,5.23,1.52l.8.46c.35.16.69.33,1,.51l14,8a2.43,2.43,0,0,1,.31,1.24C240.5,120,239.7,121.05,238.09,122Z" transform="translate(-59.89 -61.25)"/></svg>